:SAMPLES-PER-SECOND 24
:FULLY-SPECIFIED
:DEGREES
544
root  5.96052 39.2698 42.1154 6.50806 -15.8672 1.44965
RightUpLeg  -24.6349 -17.4371 7.23494
RightLeg  20.0338 -23.2207 -9.2638
RightFoot  -5.67827 0.589994 -12.6311
RightToes  -2.08645e-008 3.77894e-005 6.81332e-007
Spine  -1.40819 -5.45234 -5.839
Spine1  5.90508 -9.04614 15.5254
HEad  -34.1653 37.4763 -20.8258
LeftShoulder1  6.65623 -12.5992 -35.3092
LeftArm  19.6202 -2.34577 -38.2742
LeftForeArm  134.387 -79.5772 -117.086
LeftHand  -0.163478 -4.9282 2.14094
RightShoulder  3.64949 6.49024 30.6142
RightArm  -26.2535 -22.27 34.4429
RightForeArm  21.4243 6.58459 5.96552
RightHand  -0.598678 7.63532 -5.68751
LeftUpLeg  5.15184 10.8323 0.124848
LeftLeg  15.1456 12.0134 2.45156
LeftFoot  -12.2143 -0.0306219 -13.7833
LeftToes  1.24767e-006 1.47042e-008 1.32732e-009
545
root  6.11749 38.9138 41.519 7.34863 -8.37415 0.947876
RightUpLeg  -29.0984 -21.9965 7.83302
RightLeg  26.2329 -22.9092 -11.9921
RightFoot  -6.43453 0.37894 -9.70507
RightToes  -2.08645e-008 3.77894e-005 6.81332e-007
Spine  -0.761707 -5.24931 -10.4441
Spine1  5.99024 -9.38401 18.465
HEad  -32.5037 30.5332 -16.1655
LeftShoulder1  6.63417 -12.6988 -34.9249
LeftArm  26.1725 -11.4479 -40.7089
LeftForeArm  109.001 -80.7186 -91.4659
LeftHand  -0.173723 -5.22308 2.21107
RightShoulder  3.62935 6.44919 30.5622
RightArm  -25.7988 -19.7166 35.3674
RightForeArm  20.1719 9.68779 6.26794
RightHand  -0.679967 8.01905 -6.24167
LeftUpLeg  4.27895 3.08834 -0.00930545
LeftLeg  11.6681 14.6696 2.87842
LeftFoot  -15.3318 -0.286051 -10.7611
LeftToes  1.24767e-006 1.47042e-008 1.32732e-009
546
root  6.19127 38.7384 41.1485 7.76074 -2.1676 1.75201
RightUpLeg  -32.0763 -21.831 4.3592
RightLeg  33.0925 -20.3157 -13.9022
RightFoot  -6.12913 0.14613 -4.10274
RightToes  -2.08645e-008 3.77894e-005 6.81332e-007
Spine  -0.582918 -4.7211 -13.5366
Spine1  6.59333 -8.85572 18.4826
HEad  -30.7131 23.5008 -12.1279
LeftShoulder1  6.86305 -12.9367 -35.7069
LeftArm  30.6799 -15.7377 -41.1449
LeftForeArm  103.105 -80.7373 -84.1025
LeftHand  -0.147303 -5.42819 1.89694
RightShoulder  3.61693 6.36886 30.7363
RightArm  -23.4354 -17.2017 34.8011
RightForeArm  20.7444 12.0493 6.24954
RightHand  -0.832824 8.31692 -7.40439
LeftUpLeg  3.40913 -0.138453 -0.861924
LeftLeg  9.84715 12.0928 3.57066
LeftFoot  -16.3231 -0.296755 -9.05068
LeftToes  1.24767e-006 1.47042e-008 1.32732e-009
547
root  6.21802 38.8242 41.0435 7.97217 1.61914 2.5434
RightUpLeg  -33.3444 -17.5146 -0.763757
RightLeg  38.488 -16.1079 -13.5489
RightFoot  -3.0857 0.0236476 -0.617835
RightToes  -2.08645e-008 3.77894e-005 6.81332e-007
Spine  -0.504484 -3.91836 -13.8112
Spine1  7.17439 -7.51525 15.9389
HEad  -29.7488 17.9115 -10.0215
LeftShoulder1  6.9695 -12.9893 -36.2086
LeftArm  31.1456 -12.3775 -40.3416
LeftForeArm  110.717 -80.7857 -91.574
LeftHand  -0.135226 -5.41912 1.76825
RightShoulder  3.59043 6.30529 30.7035
RightArm  -18.6458 -15.6503 33.7663
RightForeArm  18.4443 15.7495 5.75919
RightHand  -0.943116 8.3502 -8.31529
LeftUpLeg  3.82173 0.332272 -0.538035
LeftLeg  7.40126 8.15698 2.22988
LeftFoot  -15.5011 -0.205143 -8.19019
LeftToes  1.24767e-006 1.47042e-008 1.32732e-009
548
root  6.20158 39.0767 41.0394 8.28467 4.86865 3.29041
RightUpLeg  -33.8708 -12.7673 -5.46121
RightLeg  41.5933 -13.143 -12.4742
RightFoot  0.0516653 0.134002 -1.33988
RightToes  -2.08645e-008 3.77894e-005 6.81332e-007
Spine  0.477935 -3.52293 -13.1306
Spine1  7.04405 -6.6789 13.7178
HEad  -30.0226 13.6906 -10.0979
LeftShoulder1  6.84306 -12.8602 -35.7802
LeftArm  28.2256 -2.91848 -39.3531
LeftForeArm  117.617 -80.4648 -101.534
LeftHand  -0.23966 -5.28239 2.91686
RightShoulder  3.48932 6.19791 30.0557
RightArm  -13.0201 -14.9363 33.2203
RightForeArm  12.9518 21.053 4.63276
RightHand  -0.900584 8.16191 -8.05958
LeftUpLeg  3.54596 1.1147 0.263315
LeftLeg  6.10001 3.64476 0.611079
LeftFoot  -13.207 -0.0528989 -8.12604
LeftToes  1.24767e-006 1.47042e-008 1.32732e-009
549
root  6.13221 39.3773 41.0884 9.0083 8.87445 3.61572
RightUpLeg  -33.0471 -9.33154 -8.6976
RightLeg  40.607 -12.5626 -11.5424
RightFoot  -0.342003 0.257858 -2.71712
RightToes  -2.08645e-008 3.77894e-005 6.81332e-007
Spine  1.48196 -3.85642 -11.4029
Spine1  6.71084 -6.70459 12.0207
HEad  -31.4042 9.99293 -11.36
LeftShoulder1  6.78604 -12.8426 -35.4829
LeftArm  23.3952 8.21851 -37.2739
LeftForeArm  120.475 -79.9504 -108.59
LeftHand  -0.345365 -4.97079 4.17789
RightShoulder  3.36935 6.07846 29.2357
RightArm  -11.3279 -14.9052 32.7179
RightForeArm  11.1479 26.6432 5.06322
RightHand  -0.852367 7.69876 -7.90216
LeftUpLeg  1.49611 0.675827 0.863982
LeftLeg  7.48957 -0.155649 0.517742
LeftFoot  -10.9709 0.0941642 -8.70679
LeftToes  1.24767e-006 1.47042e-008 1.32732e-009
550
root  5.98994 39.5767 41.2776 9.73267 11.7375 3.10846
RightUpLeg  -31.0197 -3.87252 -10.9633
RightLeg  34.8752 -11.0302 -8.41422
RightFoot  -1.27068 0.126712 -1.52735
RightToes  -2.08645e-008 3.77894e-005 6.81332e-007
Spine  1.02938 -3.85923 -7.69425
Spine1  7.10682 -6.04554 9.09941
HEad  -32.0987 6.87013 -11.9704
LeftShoulder1  6.7936 -12.8761 -35.4447
LeftArm  18.4924 17.3002 -33.6802
LeftForeArm  121.472 -79.7022 -111.25
LeftHand  -0.269189 -4.35321 3.48454
RightShoulder  3.30838 6.01241 28.8292
RightArm  -10.4117 -15.4888 31.7608
RightForeArm  11.6308 31.8026 6.34609
RightHand  -0.902121 7.37107 -8.53699
LeftUpLeg  -0.531635 0.228539 2.09265
LeftLeg  9.32104 -2.31801 0.658077
LeftFoot  -9.90525 0.181589 -9.68351
LeftToes  1.24767e-006 1.47042e-008 1.32732e-009
551
root  5.69917 39.4677 41.6661 10.0784 12.9659 2.9986
RightUpLeg  -28.8691 4.82358 -14.0742
RightLeg  28.6676 -8.06925 -4.97815
RightFoot  -1.2196 -0.236193 2.57197
RightToes  -2.08645e-008 3.77894e-005 6.81332e-007
Spine  0.148026 -3.28621 -5.36488
Spine1  7.34609 -4.78083 6.38529
HEad  -30.3921 5.3304 -11.3987
LeftShoulder1  6.62817 -12.6766 -34.9435
LeftArm  14.3756 24.2265 -29.4734
LeftForeArm  123.674 -79.586 -113.109
LeftHand  -0.198763 -4.02096 2.72439
RightShoulder  3.28629 5.97788 28.7201
RightArm  -8.26615 -15.7107 30.4839
RightForeArm  12.5578 35.3694 7.23186
RightHand  -0.913674 7.5091 -8.55539
LeftUpLeg  -1.73235 0.221281 3.25876
LeftLeg  11.5545 -4.01724 0.209114
LeftFoot  -10.8066 0.116196 -11.0507
LeftToes  1.24767e-006 1.47042e-008 1.32732e-009
552
root  5.30791 39.1292 42.148 9.9707 14.5489 3.5415
RightUpLeg  -26.7242 10.4764 -16.0258
RightLeg  26.3654 -7.95757 -4.48775
RightFoot  -3.7236 -0.406518 5.70232
RightToes  -2.08645e-008 3.77894e-005 6.81332e-007
Spine  0.36946 -3.01962 -5.05061
Spine1  6.6442 -4.24483 5.3906
HEad  -27.932 5.9275 -11.2207
LeftShoulder1  6.41941 -12.365 -34.4422
LeftArm  10.7209 29.5198 -24.6838
LeftForeArm  125.68 -79.3049 -116.009
LeftHand  -0.241879 -3.94153 3.27981
RightShoulder  3.31485 5.97993 29.0216
RightArm  -6.20107 -15.0033 29.3516
RightForeArm  13.8039 37.1657 7.66363
RightHand  -0.831046 7.81449 -7.64999
LeftUpLeg  -2.17712 -2.05345 3.67846
LeftLeg  14.0327 -4.06404 0.177376
LeftFoot  -12.9127 -0.0883964 -12.0668
LeftToes  1.24767e-006 1.47042e-008 1.32732e-009
553
root  4.94347 38.859 42.5917 9.63477 16.185 3.521
RightUpLeg  -25.1022 9.51464 -14.7538
RightLeg  27.0771 -9.10815 -5.24768
RightFoot  -7.55579 -0.239261 5.53882
RightToes  -2.08645e-008 3.77894e-005 6.81332e-007
Spine  1.02104 -2.79897 -2.84515
Spine1  6.09575 -3.66039 3.67763
HEad  -27.7102 8.70153 -12.9439
LeftShoulder1  6.45139 -12.3095 -34.7808
LeftArm  7.16948 31.8832 -19.4496
LeftForeArm  120.758 -79.4835 -112.761
LeftHand  -0.308127 -3.46871 4.29529
RightShoulder  3.44606 6.07923 30.0499
RightArm  -6.43831 -13.9009 28.9327
RightForeArm  15.1558 37.8086 7.76639
RightHand  -0.817099 8.02585 -7.41838
LeftUpLeg  -1.77199 -6.47237 4.05639
LeftLeg  14.8992 -1.1524 1.15812
LeftFoot  -14.4225 -0.25005 -12.4593
LeftToes  1.24767e-006 1.47042e-008 1.32732e-009
554
root  4.58494 38.7956 42.9879 9.6687 16.259 2.79944
RightUpLeg  -25.4136 7.01175 -12.5705
RightLeg  28.1337 -7.92278 -4.79157
RightFoot  -8.74522 -0.150845 4.04795
RightToes  -2.08645e-008 3.77894e-005 6.81332e-007
Spine  1.31299 -2.05449 1.3463
Spine1  5.96375 -2.14748 0.29851
HEad  -29.6043 13.4972 -16.1493
LeftShoulder1  6.61482 -12.4409 -35.4574
LeftArm  3.39627 31.457 -16.4279
LeftForeArm  107.004 -80.121 -99.4579
LeftHand  -0.418144 -2.92911 6.06899
RightShoulder  3.61741 6.25081 31.1908
RightArm  -8.52983 -12.4749 29.8207
RightForeArm  15.4479 36.5859 7.39507
RightHand  -0.918535 8.10147 -8.24664
LeftUpLeg  -1.09572 -7.70773 4.89861
LeftLeg  14.0118 0.721395 2.24188
LeftFoot  -14.4079 -0.262333 -12.9506
LeftToes  1.24767e-006 1.47042e-008 1.32732e-009
555
root  4.13549 38.9219 43.363 10.3403 16.3297 2.44531
RightUpLeg  -26.067 6.09166 -11.2569
RightLeg  28.2078 -6.70654 -4.11234
RightFoot  -8.13813 -0.145694 3.23253
RightToes  -2.08645e-008 3.77894e-005 6.81332e-007
Spine  2.01882 -1.51141 3.18844
Spine1  4.90275 -1.24777 -1.11766
HEad  -31.5369 19.5218 -19.3941
LeftShoulder1  6.71577 -12.538 -35.8275
LeftArm  -0.317495 30.2686 -17.0673
LeftForeArm  95.9938 -80.2465 -88.6017
LeftHand  -0.54815 -2.54843 8.23278
RightShoulder  3.71695 6.38279 31.7075
RightArm  -9.68719 -10.8853 31.805
RightForeArm  13.8771 33.3794 6.61821
RightHand  -0.962784 8.04181 -8.66113
LeftUpLeg  -1.05465 -5.49584 6.24081
LeftLeg  12.5538 -1.24329 2.27505
LeftFoot  -12.7979 -0.0998706 -13.8043
LeftToes  1.24767e-006 1.47042e-008 1.32732e-009
